<?xml version="1.0" encoding="UTF-8"?><svg id="_이어_1" xmlns="http://www.w3.org/2000/svg" viewBox="0 0 2841.47 672.26"><defs><style>.cls-1{fill:none;stroke:#000;stroke-miterlimit:10;}</style></defs><path class="cls-1" d="M.21,231.72c55.98,25.73,128.53,58.6,213.67,95.91,158.86,69.61,211.61,88.98,268.25,54.49,5.5-3.35,83.94-52.65,81.1-126.43-1.94-50.27-41.17-100.29-65.5-91.55-27.7,9.95-46.43,99.74-28.07,163.48,8.66,30.08,26.81,58.64,213.67,146.04,124.07,58.04,181.22,75.93,204.31,82.83,48.26,14.43,87.33,22.64,129.45,30.52,143.38,26.81,185.99,24.32,383.66,50.13,64.83,8.47,195.87,26.45,291.65,30.52,34.87,1.48,70.18,2.18,70.18,2.18,41.09,.45,43.25,0,123.21,0,43.38,0,87.99-16.3,130.14-1.94,4.38,1.49,17.62,6.41,30.5-1.94,13.23-8.57,19.23-26.71,20.79-31.97,4.44-14.89,3.27-26.5-4.16-78.47-7.3-51.12-9.13-60.64-9.7-80.41-.71-24.3,.67-56.74,4.16-57.16,2.85-.34,7.6,20.62,7.62,40.69,.02,13.51-2.11,23.71-3.47,30.03-1.89,8.82-5.45,24.82-15.25,40.69-10.65,17.25-22.69,24.67-28.42,28.09-.45,.27-11.41,6.71-23.57,8.72-26.84,4.43-45.07-12.19-108.13-48.44-8.21-4.72-16.1-10.49-24.42-14.81-16.31-8.48-25.62-10.58-26.53-18.13-.61-5.03,3.23-6.58,7.28-19.38,2.2-6.94,1.12-6.64,4.16-21.31,2.91-14.07,5-19.61,5.89-31.49,.55-7.23,.1-9.56-.35-11.14-2.12-7.42-8.26-8.63-13.86-13.56-12.83-11.29-19.24-16.93-24.95-19.38-6.63-2.84-18.49-7.91-27.03,0-3.5,3.24-3.43,5.87-10.4,13.56-5.68,6.27-9.12,9.98-12.48,8.72-1.32-.49-2.62-1.75-7.62-14.53-5.04-12.86-5.7-16.63-8.32-17.44-3.26-1.01-6.59,3.5-9.01,6.78-2.43,3.29-6.01,8.14-5.55,13.56,.42,4.93,3.84,6.38,11.09,15.5,4.73,5.95,4.36,8.66,6.93,9.69,5.16,2.06,10.62-4.59,12.82-7.27,2.12-2.58,5.23-6.36,4.85-10.66-.28-3.27-2.43-5.15-4.51-7.27-1.98-2.03-14.84-15.19-13.86-24.22,.32-2.96,2.75-5.36,7.62-10.17,6.32-6.24,9.82-6.74,11.09-11.63,.79-3.05,.18-5.79-.69-9.69-.38-1.71-3.77-16.06-12.48-18.41-.81-.22-2.63-.68-4.85,0-4.53,1.39-5.39,5.93-10.74,9.69-2.94,2.06-6.79,3.57-7.28,2.42-.56-1.32,3.15-6.47,6.93-9.69,3.33-2.83,4.2-2.02,6.98-5.13,1.16-1.3,2.04-2.6,3.42-2.62,1.44-.02,3.28,1.37,3.47,2.91,.58,4.72-14.89,6.26-17.33,17.44-1.9,8.71,5.02,19.08,10.4,27.13,4,5.99,5.79,6.47,6.82,6.5,2.82,.1,4.56-2.94,11.89-12.8,7.15-9.61,8.14-10.28,9.36-10.17,3.66,.33,3.92,7.27,11.09,17.92,5.29,7.85,7.73,7.93,7.97,11.63,.63,9.89-16.33,17.61-15.25,22.28,.35,1.5,2.33,1.75,13.86,2.42,12.26,.71,12.96,.59,15.25,1.45,2.9,1.09,10.53,4.1,15.02,13.83,1.16,2.51,1.74,4.67,1.96,5.55,2.67,10.59-.53,20.1-2.08,24.7-.88,2.61-2.2,6.53-3.47,6.3-1.06-.2-2-3.25-1.39-4.36,.85-1.53,5,.04,7.62,3.39,2.14,2.73,2.5,5.67,3.47,9.2,1.69,6.14,4.13,9.91,9.01,17.44,6.22,9.6,10.42,11.9,10.05,16.95-.21,2.86-1.63,3.22-2.43,5.81-3.03,9.92,9.57,31.5,23.91,46.02,6.48,6.56,13.77,12.14,14.21,21.31,.09,1.88-.04,5.36-1.04,5.81-1.62,.73-4.98-6.65-6.93-12.59-3.22-9.8-2.01-13.93-5.2-22.28-.93-2.45-.82-1.53-5.89-10.66-4.73-8.53-10.33-16.16-14.56-25.19-.93-1.98-2.66-5.83-5.18-6-1.74-.12-2.46,1.61-3.83,2.12-3.84,1.43-8.69-8.27-14.21-18.41-11.32-20.81-14.68-23.7-18.18-24.45-3.53-.76-8.47,.37-8.85,2.66-.2,1.23,.88,2.95,2.08,3.39,2.07,.77,3.98-2.46,6.77-6.05,8.01-10.32,12.67-10.07,13.33-16.24,.3-2.77-.27-6.23-1.73-7.27-1.45-1.03-3.37,.59-5.89,2.91-11.26,10.33-13.32,15.09-17.33,14.53-2.48-.35-4.35-2.54-5.89-.97-1.11,1.13-1.57,3.74-1.04,4.36,1.34,1.56,6.69-11.87,18.37-18.41,5.76-3.23,10.58-3.38,12.13-8.72,.61-2.1,.73-5.07-.35-6.78-1.79-2.84-6.14-1.04-8.66,0-3.02,1.25-4.25,2.47-12.48,9.2-7.39,6.05-8.83,7.05-11.09,6.78-1.88-.22-3.89-1.27-4.85,.22-.73,1.13-.71,3.52,0,4.14,1.45,1.28,4.33-6.19,11.78-12.11,4.77-3.79,10.74-7.27,10.74-7.27,2.62-1.52,4.96-2.71,6-5.93,.58-1.8,1.01-5.02-.11-6.67-2.93-4.35-14.89,4.78-15.6,5.33-6.25,4.85-7.21,8.3-11.09,8.23-3.99-.06-7-3.78-8.32-1.94-.69,.97-.73,3.2-.04,4.21,3.26,4.75,25.27-14.16,23.95-19.22-.47-1.79-3.81-1.67-10.05-1.45-5.44,.19-5.45,1.25-12.82,1.94-4,.37-5.11,.17-6.93,1.45-2.92,2.06-5.88,6.71-5.2,10.17,.76,3.86,5.36,2.65,6.93,7.27,1.57,4.63-2.03,8.82-.35,12.59,1.66,3.71,6.07,1.72,7.28,5.33,1.04,3.08-1.75,5.84-.69,8.72,1.24,3.37,5.62,1.1,7.97,5.33,1.3,2.34,.26,3.58,1.73,6.3,1.95,3.61,5.49,4.55,6.58,4.84,2.37,.63,3.05-.12,4.85,.97,1.87,1.12,2.66,2.83,3.47,3.88,3.13,4.06,9.33,1.85,13.17,.48,10.37-3.69,12.34-10.37,18.02-8.72,3.66,1.06,4.01,4.17,6.93,3.88,5.9-.6,9.71-13.81,10.05-15.02,3.15-11.26,.36-18.46,4.51-23.74,2.05-2.61,4.51-3.11,5.89-3.39,7.3-1.48,12.7,5.98,20.79,13.08,.22,.19,6.62,4.33,19.41,12.59,22.44,14.5,33.66,21.75,41.59,23.74,5.85,1.46,24.05,4.9,42.28-7.27,5.59-3.73,15.08-11.53,32.58-46.02,10.06-19.83,9.86-25.64,31.89-79.44,5.49-13.41,9.91-23.85,18.72-33.42,9.05-9.84,18.36-14.02,25.99-17.44,12.36-5.54,25-7.99,25.47-5.81,.32,1.45-5.05,3.58-13.52,12.35-3.23,3.35-7.17,7.49-10.92,13.81-.86,1.46-6.24,10.69-8.84,23.25-2.29,11.07-1.59,20.69,3.12,47.95,3.31,19.14,4.85,25.33,8.32,43.6,6.1,32.11,9.15,48.16,8.84,58.13-.09,2.97-1.03,32.7-4.64,49-.19,.86-.98,4.36-1.08,9.12-.19,9.5,2.5,18.41,3.64,18.16,1.15-.25,1.68-10.13,.52-18.89-1.88-14.25-7.42-19.46-12.48-32.7-2.72-7.13-3.54-11.94-6.76-32.7-5.68-36.61-9.56-62.95-13.52-103.9-1.4-14.43-1.97-22.12,0-31.97,3.05-15.24,10.09-25.04,18.72-37.06,5.04-7.02,11.33-13.4,23.91-26.16,20.71-21,25.26-23.18,29.11-21.07,6.46,3.53,5.6,16.17,10.92,17.44,5.06,1.2,7.47-9.82,19.74-26.92,5.99-8.34,8.72-10.33,23.69-30.02,5.3-6.97,7.34-9.86,8.55-14.99,1.48-6.28,.66-12.21,.26-15.06-1-7.26-3.33-12.13-4.94-15.45-2.71-5.58-7.43-15.29-16.12-18.16-1.63-.54-5.44-1.74-9.88,0-4.74,1.86-6.87,5.77-13,13.81-4.1,5.38-7.43,9.75-11.44,13.81-8.54,8.65-12.12,7.76-20.79,17.44-3.44,3.84-8.23,9.28-7.28,13.08,.59,2.33,3.08,3.8,5.2,3.63,4.93-.38,8.05-9.53,11.44-18.89,11.14-30.79,9.64-20.8,15.6-39.96,7.24-23.28,10.82-35.19,8.84-48.68-.47-3.21-2.33-15.92-8.32-18.89-3.11-1.55-4.1,1.15-9.92,.22-1.78-.29-10.16-1.63-12.96-9.66-.38-1.08-.51-1.88-.78-3.48-1.32-7.82,.66-11.45,.26-17.59-.48-7.38-3.7-7.93-3.12-11.63,1.48-9.44,23.29-10.78,36.91-11.63,3.63-.22,6.93-.15,13.52,0,12.21,.28,13.98,1.07,15.6,2.18,2.88,1.98,4.26,4.25,7.1,4.01,2.49-.22,5.51-2.33,5.9-5.46,.19-1.52-.24-3.24-1.7-5.57-4.36-6.99-11.24-8.71-12.34-8.96-20.72-4.81-30.15-5.09-30.15-5.09-23.42-.69-33.01,.97-38.47,2.18,0,0-6.56,1.45-16.64,6.54-5.91,2.98-8.63,5.11-10.92,8.72-2.9,4.58-5.28,11.89-3.64,14.53,1.09,1.76,4.37,.69,10.92-1.45,3.03-.99,4.37-1.69,8.32-2.91,0,0,2.86-.88,5.82-1.59,7.85-1.88,15.84,.77,24.85,.86,8.94,.09,7.58-2.45,20.33-3.39,7.59-.56,13.21-.04,18.66,.49,13.78,1.34,20.67,2.01,25.47,6.54,5.95,5.61,8.42,13.56,11.44,23.25,4.46,14.32,4.91,26.71,5.2,36.33,.42,14-.96,23.08-3.64,40.69-1.75,11.5-3.65,19.98-8.84,24.7-1.22,1.11-3.1,2.77-5.2,2.18-3.16-.88-4.75-6.25-8.32-20.34-4.49-17.74-4.4-18.82-6.24-23.98-3.18-8.92-6.29-17.67-11.96-18.89-4.69-1.01-8.75,3.66-9.36,4.36-2.16,2.48-3.31,6.32-5.62,13.99-2,6.65-2.98,10.02-2.16,11.78,1.61,3.47,7.44,2.23,10.9,.39,.89-.47,5.2-2.88,8.84-10.17,4.39-8.8,7.69-24.5,2.6-31.97-2.77-4.07-7.01-4.21-11.44-4.36-8.17-.28-10.4,4.29-19.75,4.36-4.33,.03-7.59-.92-9.36-1.45-4.81-1.45-9.37-2.82-13.52-7.99-1.57-1.96-4.82-6.02-5.72-12.35-1-7.06,2-9.35,1.04-15.98-.81-5.57-3.93-10.92-7.8-13.08-5-2.79-9.87,.5-15.6,4.36-3.29,2.22-7.64,5.15-11.44,11.63-4.84,8.25-5.9,17.34-6.76,24.7-.58,4.97-.13,4.47-1.04,17.44-.66,9.36-.99,14.04-1.56,16.71-1.14,5.33-2.09,5.94-7.8,20.34-4.22,10.66-5.03,13.68-4.16,16.71,1.21,4.2,4.99,6.18,5.72,6.54,3.92,1.92,5.88-.71,7.8,1.45,2.67,3.02,.37,9.85,2.6,11.63,1.25,.99,2.35-.83,8.32-3.63,4.37-2.05,5.9-2.06,7.28-1.45,1.24,.55,3.55,2.15,3.64,4.36,.1,2.67-3.13,3.82-8.32,9.45-3.89,4.22-6.11,6.7-6.24,10.17-.14,3.85,2.46,4.36,3.12,9.45,.72,5.55-2.06,7.46-1.56,13.08,.36,4.07,2.27,8.1,4.68,10.17,3.25,2.79,5.97,.77,15.08-.73,7.84-1.29,11.76-1.94,15.08,0,4.14,2.42,6.09,7.03,9.88,15.98,5.59,13.22,2.98,15.56,8.84,29.79,1.05,2.55,3.14,7.34,2.2,8.66-.9,1.26-3.49-2.2-7.4-1.39-2.54,.52-4.29,2.57-5.2,3.63-4.08,4.77-4.36,11.08-5.2,10.9-1.04-.22-1.1-10.11,0-21.07,.87-8.64,1.89-18.81,4.25-19.16,2.1-.31,4.39,7.26,6.67,14.8,3.73,12.31,2.33,14.22,5.1,18.2,3.78,5.43,7.71,3.77,11.53,10.86,1.09,2.02,2.41,4.46,2.08,7.27-.59,5.06-6.08,7.65-9.88,9.45-7.64,3.61-9.98,1.36-13.52,4.36-4.4,3.74-5.66,11.36-6.76,19.62-3.46,26.1-2.93,41.19-4.68,63.94-.86,11.2-1.6,15.6-2.6,31.24-.44,6.87-1.14,19.29,1.56,34.15,1.18,6.5,1.8,9.93,3.12,10.17,3.87,.7,9.28-27.01,15.08-56.67,0,0,7.62-39.02,8.84-63.94,.39-8.06-.27-9.43,.52-17.44,.51-5.13,1.16-8.43,0-12.35-.27-.91-1.28-4.01-4.79-7.31-7.21-6.78-12.44-2.62-14.97-7.22-3.02-5.5,.08-19.39,6.24-24.7,4.7-4.06,7.89-.29,13.52-5.11,3.44-2.95,4.01-5.87,7.8-12.33,3.8-6.49,6.01-8.28,13-16.71,6.94-8.37,13.04-15.72,18.72-24.7,11.52-18.23,13.15-30.23,18.72-29.79,2.53,.2,5.16,4.25,10.4,12.35,4.19,6.47,4.12,7.97,9.36,15.98,.54,.83,3.81,5.77,8.84,10.9,1.53,1.56,4.22,4.28,4.68,3.63,.47-.67-2.12-4-4.68-10.9-2.16-5.84-1.94-7.88-3.64-9.45-2.85-2.63-7.08-.2-8.44,.57-8.51,4.87-10.63,16.41-21.16,40.02-5.29,11.86-5.24,10.07-11.48,24.07-1.93,4.34-6.55,14.88-12.48,30.52-4.73,12.5-6.39,17.93-14.56,42.14-12.67,37.53-11.73,33.46-14.56,42.87-4.45,14.81-7.3,27.07-13,51.59-7.9,34.02-5.85,30.21-11.44,52.31-2.09,8.27-3.62,13.72-4.68,22.52-1.27,10.57-2.34,19.48-1.56,31.24,.52,7.9,1.67,13.88-1.04,18.16-1.46,2.31-3.96,4.01-5.2,2.91-2.17-1.94,.13-12.02,1.04-15.98,5.38-23.52,17.16-40.67,17.68-41.42,1.92-2.8,10.81-22.94,28.59-63.21,31.37-71.05,24.84-79.86,44.19-113.35,9.69-16.78,14.68-38.4,24.95-54.49,1.47-2.31,5.57-8.51,4.68-15.26-.85-6.46-6.11-12.28-8.32-10.9-1.28,.8-1.92,4.29-1.04,5.81,1.67,2.88,9.75,.43,13.52-6.54,2.56-4.73,.89-7.41,3.64-15.26,1.36-3.88,3.55-10.15,7.8-12.35,2.63-1.37,4.86-.55,14.04,3.63,7.51,3.43,11.27,5.14,12.48,5.81,20.4,11.37,21.63,10.37,37.67,20.09,14.24,8.63,21.44,13.06,25.24,18.42,6.54,9.23,9.28,19.41,13.52,35.6,5.42,20.75,7.55,37.29,7.8,39.24,3.99,30.91,6.5,29.89,17.16,88.64,10.91,60.13,19.2,121.44,21.31,153.31,1.84,27.69-.71,37.42,3.18,50.13,.76,2.47,3.29,10.05,.98,15.99-.61,1.57-1.87,3.83-5.2,5.81-6.72,4.01-12.37,1.26-20.27,0-10.13-1.62-8.7,1.64-22.87,.73-3.6-.23-2.1-.34-21.31-3.63-13.33-2.29-16.82-2.71-21.31-6.54-2.44-2.08-5.8-5.7-9.36-13.08-13.16-27.32-15.98-79.43-16.12-82.1-1.05-21.15-3.98-86.3-2.08-86.46,1.01-.09,2.05,18.36,7.28,68.3,4.49,42.82,5.4,51.21,6.76,60.31,6.2,41.5,5.33,53.16,12.48,61.28,3.59,4.07,7.53,5.95,28.42,6.78,32.7,1.3,48.13-2.3,76.96-.75,8.14,.44,11.52,.97,19.39,1.72,47.72,4.52,81.63-.18,125.46-1.94,13.37-.54,.95,.27,89.42,.97,56.59,.44,79.56,.25,130.31,.97,23.41,.33,42.51,.71,54.76,.97"/></svg>