<?xml version="1.0" encoding="UTF-8"?><svg id="_이어_1" xmlns="http://www.w3.org/2000/svg" viewBox="0 0 178.21 1087.56"><defs><style>.cls-1{fill:none;stroke:#f39918;stroke-miterlimit:10;}</style></defs><path class="cls-1" d="M93.24,.02l-9.25,209.83c-25.04,101.62-20.37,162.59-10.53,200.11,9.66,36.91,3.72,76.06,11.72,113.3,1.57,7.3,6.78,30.44-5.86,40.27-3.73,2.92-7.27,3.29-25.79,9.49-9.14,3.07-15,2.64-21.09,7.41-1.91,1.46-.48,.78-8.43,9.06-5.87,6.11-8.55,8.48-8.17,11.75,.31,2.65,2.45,4.43,1.51,5.46-1.05,1.16-4.12-.63-5.74,.55-1.91,1.38-.32,5.78,.3,7.65,2.56,7.75,2.27,14.29,1.81,24.59-.03,.73-1.03,6.24-3.02,17.21-1.44,7.83-2.05,11-5.14,13.39-1.79,1.39-3.49,1.8-4.54,3.83-1.04,2.02-.28,3.24,.3,7.65,.63,4.78-.06,4.63,.6,10.39,.18,1.59,.53,3.54,1.21,7.38,1.34,7.5,2.01,11.26,2.72,12.03,3.46,3.74,11.21,4.34,15.13,4.64,2.87,.22,5.6,.12,7.26,1.91,1.01,1.1,1.07,2.33,1.21,4.38,.67,10.09,1.36,10.76,.31,11.74-1.12,1.04-2.57,.91-12.1,.28-7.05-.47-7.41,0-8.47-.55-6.94-3.49-4.24-19.6-3.86-19.61s1.34,12.07,1.13,22.75c-.19,9.76-1.25,11.53,.68,14.35,1.02,1.46,3.35,3.94,25.41,6.76,20.29,2.59,11.01-.42,34.26,.82,1.65,.09,5.04,.28,7.71-1.64,4.14-2.99,5.09-10.03,2.04-12.71-.9-.8-2.27-1.15-4.99-1.85-1.95-.51-3.92-.86-5.9-1.02-10.28-.84-22.97,3.43-29.04-1.46-3.01-2.41-3.46-6.32-3.86-9.84-.37-3.23-.9-7.96,2.04-10.45,2.94-2.49,6.29-.34,17.02-.2,10.44,.12,14.04-1.78,16.33,.61,2.08,2.19,1.47,6.25,.68,11.48-.68,4.55-1.74,5.84-.68,7.58,1.7,2.81,6.84,3.51,10.44,2.87,3.83-.68,7.58-3.17,9.09-6.97,1.88-4.8-.48-10.03-4.08-12.3-4.83-3.03-11.9-.73-12.25-2.05-.2-.73,2.04-1.23,3.63-3.07,2.76-3.18,1.24-7.68,.61-11.47-.25-1.51,.39-6.57,1.66-16.6,1.91-15.22,2.87-22.83,5.22-31.97,1.31-5.11,2.8-9.95,2.04-16.6-.82-7.2-3.55-10.08-5.44-11.48-1.7-1.3-3.55-2.06-5.45-2.25-3.78-.37-6.05,1.76-10.89,4.51-5.74,3.17-11.67,5.43-17.71,6.76-4.43,.94-7.21,1.53-10.66,.61-5.23-1.38-8.2-5.19-10.21-7.79-2.87-3.65-3.92-7.05-5.45-11.89-1.73-5.28-2.34-9.74-2.08-9.8,.36-.07,1.18,8.9,7.71,17.83,3.01,4.12,5.6,7.67,10.43,9.22,5.11,1.64,10.66-.32,21.53-4.31,7.73-2.83,13.15-4.81,12.92-6.97-.23-2.15-6.58-3.8-11.12-4.1-7.82-.52-13.58,2.4-13.84,1.85-.26-.55,3.22-2.92,7.94-3.9,8.61-1.77,17.34,2.37,17.23,2.67s-9.01-.5-14.97-5.74c-1.6-1.3-2.99-3.12-4.09-5.32-2.62-5.62-.71-10.95,0-12.91,1.19-3.56,3.1-6.44,5.45-8.2,3.42-2.75,7.11-3.41,12.48-4.3,5.05-.8,10.13-1,15.2-.61,6.79,.36,12.18,.69,18.38,3.28,4.03,1.69,7.79,3.26,9.75,6.97,2.54,4.78,.39,9.92,0,10.86-2.73,6.57-9.36,9.06-8.39,10.87,.43,.8,1.79,.4,8.85,1.64,2.77,.49,4.54,.9,5.67,2.26,.59,.7,1.02,1.66,1.23,2.75,.08,.42,.39,1.96-.1,2.19-.58,.23-1.75-1.69-3.17-3.07-3.35-3.26-9.98-5.36-13.84-3.48-2.56,1.24-2.44,3.5-6.13,4.92-1.58,.61-2.07,.37-3.18,1.02-2.23,1.31-2.96,3.84-3.4,6.35-.69,3.88-.77,7.96-.22,11.89,1.63,9.57,3.78,12.93,6.35,23.98,1.16,5,.63,3.93,1.59,7.79,2.63,10.66,6.92,19.86,9.3,24.6,4.17,8.29,7.31,12.42,5.22,14.96-1.14,1.37-3.68,2.07-7.26,3.07-4.16,1.16-5.02,.65-6.13,1.64-1.87,1.67-.62,4.15,.22,11.27,.96,8.19-.04,10.14,2.04,11.69,2.99,2.19,7.34-.11,9.53,2.46,1.01,1.19,1.28,3.1,.48,4.3-1.24,1.8-4.6,1.55-11.35,1.23-16.07-.73-17.55-.28-17.71,.21-.22,.78,2.87,2.13,3.63,2.45,9.23,4.02,23.19,4.18,26.09-1.02,1.54-2.77-.58-6.09,1.59-7.38,1.01-.61,1.74,0,5.22-.61,2.22-.38,3.35-.58,4.09-1.46,1.08-1.23,1.11-3.43,0-4.3-1.5-1.17-3.83,1.03-6.35,.41-5.02-1.23-7.95-12.77-3.86-15.99,2.21-1.73,5.67-.44,7.94-3.07,.14-.16,1.53-1.81,.91-2.87-.99-1.68-6.53-.99-6.58-.41-.06,.73,7.81,2.88,15.65,2.46,10.81-.58,15.82-5.78,19.28-3.28,2.2,1.58,2.44,5.31,2.72,9.84,.15,2.37,.22,3.55-.23,4.51-1.01,2.15-4.03,4.06-17.71,5.33s-21.69,.37-23.14,3.69c-.26,.61-.18,1.07,0,2.26,2.05,13.25,1.16,15.57,3.63,17.62,1.91,1.58,4.62,1.62,9.98,1.64,4.55,0,9.48-.42,25.84-4.31,4.96-1.1,9.89-2.6,14.74-4.51,6.75-2.7,8.41-4.32,9.3-5.94,1.41-2.56-.2-3.15,0-9.63,.12-4.13,.96-9.26-.45-13.93-.22-.93-.73-1.62-1.36-1.85-1.16-.36-2.46,.92-4.99,2.87-3.44,2.66-5.16,3.99-6.35,3.89-2.79-.21-4.5-4.7-5.68-7.79-1.33-3.49-2.14-5.63-1.13-7.79,1.2-2.56,3.64-2.29,8.17-5.33,5.99-4.03,6.29-7.59,8.85-7.38,3.6,.28,5.44,7.52,6.13,10.22,1.13,4.46,.31,6.7-.45,7.99-.48,.79-1.41,2.37-2.27,2.26-1.32-.17-2.44-4.35-4.31-35.66-.17-2.84-.4-6.81-2.95-11.06-.91-1.53-1.71-2.39-8.39-9.02-6.69-6.63-7.23-7.1-8.17-8.41-2.96-4.13-3.77-7.87-4.76-12.5-1.29-5.98-3.12-14.52,.22-23.57,.92-2.48,1.94-4.22,1.59-6.97-.69-5.37-6.04-9.96-7.94-9.22-1.35,.53,.11,3.35-.91,8.41-1.25,6.21-5.19,10.44-7.48,12.91-3.32,3.77-7.1,6.48-11.12,7.99-2.77,1.07-5.11,1.96-8.17,1.64-2.39-.26-3.12-1.04-11.57-5.33-3.32-1.69-3.92-1.93-3.86-2.26,.37-1.83,20.1,4.73,32.44-2.86,8.48-5.22,11.4-15.83,10.66-23.78-.96-10.28-8.08-16.72-11.35-19.67-9.94-9-22.21-10.83-27.9-11.69-1.88-.28-5.33-.73-18.38-.41-11.7,.27-21.31,.9-27.9,1.46"/><line class="cls-1" x1="98.94" y1="750.5" x2="94.37" y2="1087.55"/></svg>