<?xml version="1.0" encoding="UTF-8"?><svg id="_이어_1" xmlns="http://www.w3.org/2000/svg" viewBox="0 0 236.97 1679.62"><defs><style>.cls-1{fill:none;stroke:#f39918;stroke-miterlimit:10;}</style></defs><path class="cls-1" d="M111.6,.12c-33.31,139.14-27.11,222.63-14.04,274.03,12.85,50.55,4.95,104.15,15.6,155.14,2.1,10.04,9.02,41.68-7.8,55.14-4.96,3.97-9.68,4.51-34.31,13-12.17,4.19-19.97,3.61-28.07,10.15-2.53,2.04-.65,1.07-11.22,12.39-7.81,8.37-11.37,11.61-10.87,16.09,.41,3.63,3.26,6.06,2.01,7.48-1.4,1.59-5.49-.87-7.65,.75-2.54,1.9-.42,7.91,.4,10.48,3.4,10.61,3.02,19.57,2.42,33.68-.04,1.04-1.37,8.55-4.03,23.57-1.89,10.72-2.74,15.06-6.84,18.33-2.39,1.9-4.65,2.47-6.04,5.24-1.34,2.68-.37,4.44,.4,10.48,.83,6.55-.07,6.34,.8,14.22,.24,2.17,.7,4.85,1.61,10.1,1.77,10.26,2.68,15.42,3.62,16.46,4.61,5.12,14.92,5.94,20.13,6.36,3.8,.3,7.46,.16,9.66,2.62,1.36,1.51,1.43,3.19,1.61,5.99,.9,13.82,1.81,14.75,.4,16.09-1.5,1.43-3.42,1.23-16.1,.37-9.39-.64-9.86-.02-11.27-.75-9.23-4.78-5.65-26.84-5.13-26.85,.45,0,1.78,16.52,1.51,31.15-.25,13.36-1.67,15.79,.91,19.64,1.37,2.05,4.46,5.4,33.81,9.26,27,3.55,14.64-.57,45.58,1.12,2.19,.12,6.72,.38,10.26-2.24,5.51-4.08,6.77-13.74,2.72-17.4-1.21-1.09-3.02-1.57-6.64-2.53-1.25-.33-4.2-1.1-7.85-1.4-13.68-1.15-30.56,4.7-38.64-1.96-4.01-3.31-4.6-8.66-5.13-13.47-.49-4.43-1.2-10.9,2.72-14.31,3.84-3.34,8.37-.46,22.64-.28,13.89,.17,18.69-2.44,21.74,.84,2.77,2.99,1.95,8.55,.91,15.72-.91,6.23-2.31,7.99-.91,10.38,2.26,3.85,9.1,4.8,13.89,3.93,5.11-.93,10.09-4.34,12.08-9.54,2.5-6.57-.63-13.74-5.43-16.84-6.43-4.15-15.83-.98-16.3-2.81-.26-1.01,2.71-1.7,4.83-4.21,3.66-4.35,1.65-10.52,.81-15.71-.33-2.07,.51-8.96,2.2-22.73,2.56-20.84,3.84-31.26,6.94-43.78,1.74-7.03,3.73-13.62,2.72-22.73-1.1-9.86-4.73-13.8-7.25-15.72-1.11-.84-3.65-2.73-7.25-3.09-5.03-.5-8.05,2.41-14.49,6.17-1.45,.85-11.5,6.63-23.55,9.26-5.9,1.29-9.59,2.1-14.19,.84-6.96-1.9-10.91-7.12-13.58-10.66-3.82-5.05-5.22-9.65-7.25-16.28-2.22-7.28-3.06-13.4-2.72-13.47,.49-.1,1.57,12.17,10.26,24.41,4.01,5.64,7.46,10.5,13.89,12.63,6.8,2.25,14.19-.43,28.68-5.89,10.28-3.87,17.5-6.59,17.21-9.54-.3-3.09-8.75-5.2-14.79-5.61-10.41-.71-18.07,3.29-18.41,2.53-.27-.61,4.28-4,10.57-5.33,11.49-2.43,23.07,3.24,22.94,3.65-.12,.39-11.99-.69-19.92-7.86-3.46-3.13-5.01-6.36-5.43-7.3-3.48-7.7-.95-14.95,0-17.68,.92-2.64,2.57-7.35,7.25-11.23,4.55-3.77,9.46-4.67,16.6-5.89,8.44-1.44,14.99-1.13,20.23-.84,9.03,.49,16.21,.94,24.45,4.49,5.37,2.31,10.37,4.46,12.98,9.54,3.37,6.55,.52,13.58,0,14.87-3.64,8.97-12.45,12.4-11.17,14.87,.57,1.1,2.39,.55,11.77,2.24,3.68,.67,6.04,1.23,7.55,3.09,1.15,1.42,1.55,3.26,1.64,3.77,.11,.57,.51,2.69-.13,2.96-.77,.32-2.33-2.31-4.23-4.21-4.47-4.48-13.27-7.34-18.41-4.77-3.4,1.7-3.24,4.79-8.15,6.74-2.11,.83-2.75,.51-4.23,1.4-2.97,1.8-3.93,5.25-4.53,8.7-1.5,8.7-.36,15.9-.3,16.28,2.17,13.11,5.03,17.71,8.45,32.83,1.55,6.84,.84,5.38,2.11,10.66,3.5,14.59,9.21,27.19,12.38,33.68,5.55,11.35,9.72,17.04,6.94,20.49-1.51,1.88-4.9,2.85-9.66,4.21-5.54,1.59-6.67,.89-8.15,2.25-2.48,2.28-.83,5.68,.3,15.43,1.3,11.21-.05,13.87,2.72,16,3.98,3.05,9.76-.15,12.68,3.37,1.35,1.63,1.71,4.24,.6,5.89-1.65,2.47-6.12,2.12-15.09,1.68-21.39-1.04-23.36-.38-23.55,.28-.3,1.07,3.83,2.92,4.83,3.37,12.28,5.5,30.86,5.71,34.72-1.4,2.05-3.79-.78-8.34,2.11-10.1,1.35-.83,2.32-.04,6.94-.84,2.94-.51,4.44-.79,5.43-1.96,1.43-1.69,1.48-4.7,0-5.89-1.99-1.6-5.07,1.42-8.45,.56-6.68-1.69-10.58-17.48-5.13-21.89,2.94-2.37,7.54-.6,10.57-4.21,.19-.22,2.03-2.48,1.21-3.93-1.31-2.3-8.69-1.36-8.75-.56-.08,.97,10.39,3.94,20.83,3.37,14.38-.79,21.05-7.91,25.66-4.49,2.93,2.17,3.24,7.27,3.62,13.47,.2,3.24,.3,4.86-.3,6.17-1.34,2.94-5.36,5.56-23.55,7.3-18.21,1.74-28.86,.51-30.79,5.05-.35,.83-.25,1.46,0,3.09,2.73,18.15,1.54,21.33,4.83,24.13,2.53,2.16,6.15,2.22,13.28,2.25,6.05,.02,12.62-.57,34.41-5.89,5.31-1.3,11.73-2.93,19.62-6.17,8.98-3.69,11.19-5.91,12.38-8.14,1.87-3.51-.26-4.31,0-13.19,.17-5.65,1.25-12.68-.6-19.08-.22-.75-.67-2.16-1.81-2.53-1.55-.5-3.28,1.26-6.64,3.93-4.58,3.64-6.87,5.46-8.45,5.33-3.71-.29-5.99-6.44-7.55-10.66-1.77-4.78-2.85-7.71-1.51-10.66,1.59-3.5,4.84-3.13,10.87-7.3,7.98-5.52,8.37-10.38,11.77-10.1,4.79,.4,7.23,10.3,8.15,14.03,1.51,6.11,.42,9.19-.6,10.94-.63,1.08-1.88,3.24-3.02,3.09-1.76-.23-3.24-5.95-5.74-48.83-.23-3.89-.53-9.33-3.92-15.15-1.22-2.09-2.27-3.26-11.17-12.35-8.98-9.17-9.62-9.72-10.87-11.51-3.95-5.65-5.01-10.77-6.34-17.12-1.71-8.2-4.15-19.88,.3-32.27,1.22-3.41,2.58-5.79,2.11-9.54-.92-7.35-8.04-13.64-10.57-12.63-1.8,.72,.15,4.59-1.21,11.51-1.67,8.51-6.9,14.3-9.96,17.68-2.96,3.27-7.32,7.99-14.79,10.94-3.69,1.46-6.8,2.69-10.87,2.25-3.18-.35-4.15-1.41-15.4-7.3-4.41-2.31-5.22-2.65-5.13-3.09,.49-2.51,26.73,6.47,43.17-3.93,11.29-7.14,15.17-21.67,14.19-32.55-1.27-14.07-10.75-22.9-15.09-26.94-13.24-12.33-29.55-14.83-37.13-16-2.5-.38-7.09-.97-24.45-.56-14.31,.34-35.43,1.7-37.13,1.96-34.14,5.25-24.94,1131.7-24.45,1187.33"/></svg>