<?xml version="1.0" encoding="UTF-8"?><svg id="_이어_1" xmlns="http://www.w3.org/2000/svg" viewBox="0 0 186.54 1080.1"><defs><style>.cls-1{fill:none;stroke:#000;stroke-miterlimit:10;}</style></defs><path class="cls-1" d="M4.04,.09C.28,19.76-2.64,46.23,7.04,59.12c10,13.31,25.39,1.42,60,0,27.83-1.14,54.43-2.24,74,21.08,17.17,20.46,28.33,59.02,20,80.1-4.1,10.37-12.05,14.32-11,21.08,1.72,11.11,24.78,10.59,25,16.86,.23,6.66-25.65,10.13-26,18.27-.38,8.8,35.33,14.89,35,19.67-.32,4.7-34.74,2.79-35,7.03-.24,3.93,29.24,9.36,29,14.05-.22,4.43-26.73,3.75-27,8.43-.31,5.29,33.28,11.49,33,16.86-.26,5.12-30.96,5.3-31,8.43-.04,3.25,33.03,6.09,33,9.84-.03,3.58-30.3,1.96-32,12.65-.93,5.87,7.07,13.53,15,19.67V940.26l.5,139.83"/></svg>