<?xml version="1.0" encoding="UTF-8"?><svg id="_이어_1" xmlns="http://www.w3.org/2000/svg" viewBox="0 0 71.45 3029.52"><defs><style>.cls-1{fill:none;stroke:#000;stroke-miterlimit:10;}</style></defs><path class="cls-1" d="M37.29,.01c-3.05,133.83-7.59,214.94-12.35,267.78-3.17,35.25-.35,70.79-1.23,106.17-.99,39.56-2.15,61.36,12.35,82.72,12.54,18.47,31.87,29.08,28.4,35.8-3.96,7.66-28.5-2.84-39.51,9.88-6.3,7.28-6.88,20.68-1.23,25.93,8.2,7.61,24.28-6.87,37.04,1.23,8.25,5.25,12.78,18.47,8.64,25.93-7.24,13.03-39.45,5.73-40.74,12.35-.64,3.27,7.21,5.28,18.52,16.05,6.1,5.81,12.92,12.09,16.05,22.22h0c.71,2.32,4.64,14.9-1.23,25.93-1.34,2.52-5.29,9.92-13.58,12.35-9.77,2.85-20.74-2.61-25.93-11.11-.98-1.6-6.08-10.19-2.47-19.75,3.72-9.86,13.69-12.87,16.05-13.58,9.28-2.8,22.99-1.33,27.16,6.17,7.2,12.96-21.42,30.65-16.05,55.56,2.63,12.19,11.46,17.1,8.64,22.22-4.79,8.71-30.75-4.76-43.21,7.41-7.46,7.29-8.3,22.04-2.47,28.4,4.67,5.08,10.99,1.93,29.63,4.94,13.84,2.23,23.43,3.77,25.93,9.88,3.19,7.8-5.8,21.62-17.28,25.93-12.3,4.62-24.64-2.74-25.93,0-1.17,2.48,9.57,7.23,16.05,16.05,11.14,15.16,4.56,35.3,1.23,55.56-3.87,23.54,.6,23.3,1.23,74.07,.77,61.68-4.38,106.56-7.41,173.95-2.28,50.78,.16,35.9-1.23,179.14-.93,95.36-2.05,105.66-2.47,176.54-.5,83.51,.65,136.78,1.23,182.72,2.83,223.92-.41,335.9-3.7,345.68-1.58,4.69-7.81,21.75,0,30.86,9.25,10.8,34.53,6.16,34.57,4.94,.04-1.34-30.05-8.63-42.13,4.23-5.63,5.99-7.47,16.49-3.55,21.7,2.35,3.12,5.69,2.94,23.46,6.17,14.26,2.59,16.94,3.59,18.52,6.17,2.89,4.74,.81,12.79-3.7,17.28-8.18,8.14-25.93,6.17-25.93,6.17-7.05-2.67-14.25-2.42-17.28,1.23-3.95,4.76,1.78,16.78,9.88,22.22,7.2,4.84,13.57,2.66,16.05,7.41,2.86,5.47-3.71,11.96-1.23,14.81,3.55,4.09,18.17-7.9,23.46-3.7,5.37,4.26,1.9,25.73-12.35,33.33-13.58,7.25-28.56-2.95-29.63-3.7-1.5-1.06-14.11-10.03-12.35-18.52,3.05-14.6,47.58-22.37,54.32-11.11,6.7,11.19-26.51,36.84-17.28,54.32,3.55,6.72,11.9,9.46,11.11,11.11-1.3,2.72-21.32-10.05-37.04-2.47-9.39,4.53-12.89,14.23-13.58,16.05-3.19,8.46-3.44,21.13,2.47,24.69,5.49,3.31,10.89-4.5,27.16-6.17,6.88-.71,17.59-1.81,23.46,4.94,3.9,4.48,5.1,11.79,2.47,17.28-3.88,8.11-14.7,9.31-19.75,9.88-14.15,1.57-25.57-4.59-25.93-3.7-.42,1.06,18.05,5.17,25.93,18.52,6.23,10.56,3.38,22.8,2.47,27.16-11.81,56.41-1.66,115.3-4.94,172.84-1.41,24.7-1.35,63.38-1.23,140.74,.05,33.68,.31,37.45,1.23,129.63,.5,50.05,.98,97.5,1.23,143.21,.22,39.33,.38,96.91,0,167.9"/></svg>