<svg version="1.1" id="Layer_1" xmlns="http://www.w3.org/2000/svg" xmlns:xlink="http://www.w3.org/1999/xlink" x="0px" y="0px"
	 width="100%" viewBox="0 0 1024 1024" enable-background="new 0 0 1024 1024" xml:space="preserve">
<path fill="#000000" opacity="1.000000" stroke="none" 
	d="
M847.399963,1025.000000 
	C846.557556,976.019165 846.311707,927.035461 845.612549,878.058289 
	C845.020447,836.576660 845.183594,795.086182 844.471863,753.614624 
	C843.725525,710.125916 844.004639,666.645203 843.788269,623.161316 
	C843.782532,622.010315 843.787476,620.859314 843.787476,618.655701 
	C837.839478,623.664978 832.627319,628.151062 827.313660,632.513489 
	C799.754578,655.138733 770.629639,675.212036 736.911133,687.763245 
	C715.983582,695.553162 694.106689,698.768921 672.061401,701.059021 
	C654.650635,702.867676 637.150635,703.933838 619.677246,703.001648 
	C573.668152,700.547241 527.420471,699.402100 483.078674,684.651001 
	C443.838501,671.597046 404.667603,658.183655 370.357574,634.218567 
	C352.765106,621.930420 335.347534,609.313354 319.657990,594.552002 
	C315.738800,590.864563 312.440125,586.726685 311.224243,581.256042 
	C310.943207,579.991516 310.269623,579.583313 311.654053,577.907898 
	C313.702576,575.428955 310.762207,573.390564 308.140472,573.137024 
	C300.556122,572.403748 292.962799,571.557007 285.314789,572.749146 
	C273.247040,574.630310 262.753693,580.605530 251.739502,585.281555 
	C231.839096,593.730286 211.435089,600.242859 189.420944,599.220032 
	C178.256821,598.701233 167.210953,597.235291 156.587021,593.500305 
	C154.044586,592.606445 151.322281,591.665161 150.848038,588.585815 
	C150.353668,585.375854 152.900192,583.875671 155.175247,582.479370 
	C164.218872,576.929016 171.951691,569.963013 178.598633,561.681641 
	C188.862122,548.894592 199.786331,536.804199 216.055344,530.127991 
	C203.512863,513.572571 203.043793,493.469513 196.591187,475.409760 
	C194.456665,469.435608 196.744858,466.460632 203.275940,466.750885 
	C222.126831,467.588623 238.635818,474.803680 254.341614,484.955963 
	C270.038605,495.102509 282.365356,508.506256 293.751587,522.907776 
	C314.479248,549.124695 342.076508,562.959412 374.359772,568.730286 
	C386.293304,570.863464 398.335297,570.183655 410.247559,569.446716 
	C438.165802,567.719421 465.731476,563.065186 493.199982,557.878967 
	C499.491119,556.691101 505.212402,553.939026 511.093048,551.655945 
	C534.612793,542.525024 558.992371,536.662842 583.657654,531.632568 
	C594.289368,529.464355 603.749390,523.733093 613.445801,518.986084 
	C618.036560,516.738647 623.742493,515.738892 625.969116,509.992767 
	C626.202515,509.390472 627.700378,508.598297 627.959167,508.787323 
	C632.044373,511.771515 634.658081,507.974579 637.476929,506.529388 
	C655.853455,497.107971 673.863037,486.980316 692.925171,478.909546 
	C716.128479,469.085480 739.873169,466.957214 764.239380,473.447357 
	C794.153198,481.415222 822.912476,477.379028 851.264160,466.177246 
	C862.838806,461.604065 874.644165,457.329895 887.295654,456.522552 
	C888.619385,456.438110 889.957336,456.395172 891.278625,456.483459 
	C895.838318,456.788116 900.791382,457.064362 902.704163,462.014465 
	C904.670654,467.103333 901.746155,471.495667 898.628967,475.189667 
	C892.691772,482.225433 884.266479,485.367615 875.868347,488.052338 
	C861.600342,492.613556 847.107178,496.467926 832.821838,500.977997 
	C825.370789,503.330444 818.158142,506.439636 810.845215,509.226501 
	C809.314209,509.809906 807.894165,510.801117 806.404724,510.515076 
	C804.311035,509.293518 806.040100,507.109985 804.496460,505.631836 
	C793.516907,508.908875 784.956726,515.882019 777.608521,524.446716 
	C773.178833,529.609741 769.388428,535.249023 765.704102,541.030273 
	C760.814209,548.703308 754.623779,555.554810 748.892273,562.678955 
	C747.533325,564.368042 745.916077,565.872864 745.123901,567.922241 
	C739.989014,581.206055 729.849243,589.906799 718.240234,597.205933 
	C698.776367,609.443726 676.926392,615.470459 654.996399,621.241882 
	C634.562439,626.619690 613.596313,629.971069 593.578308,636.885986 
	C584.794373,639.920227 576.366516,643.984009 567.772156,647.568848 
	C567.050049,647.870117 566.291016,648.082886 565.301331,647.768066 
	C568.299622,645.813843 571.297974,643.859619 574.296265,641.905396 
	C567.714111,642.110352 561.611328,644.169495 555.632874,646.660461 
	C554.439270,647.157776 554.296265,648.495178 554.002625,649.617371 
	C550.859985,661.626648 542.072693,668.794128 532.163147,674.943542 
	C528.733765,677.071716 525.072388,678.247803 521.630676,674.931152 
	C518.352539,671.772034 518.278320,667.829529 519.472778,663.795959 
	C520.626404,659.900391 523.667725,657.360840 526.766052,655.156250 
	C531.780273,651.588440 537.080811,648.424622 542.230591,645.044739 
	C544.590942,643.495728 547.684631,641.871521 547.066711,638.726013 
	C546.493958,635.810303 543.305847,634.916504 540.535339,633.998169 
	C511.979065,624.532227 482.524933,619.224915 452.881653,614.648193 
	C418.915222,609.403992 386.694122,598.282837 355.236328,584.767883 
	C344.733521,580.255615 333.700134,579.182495 322.511414,580.031433 
	C316.925934,580.455200 316.213287,582.578918 319.652344,587.167053 
	C325.323425,594.732910 333.007294,600.195129 340.509430,605.691895 
	C360.300018,620.192139 381.141083,633.029053 403.165833,643.895447 
	C406.051147,645.319031 408.755157,647.412842 410.196014,642.002869 
	C410.905273,639.339905 419.383362,638.065186 423.689514,639.553650 
	C427.777954,640.966797 431.817627,642.541809 435.799194,644.232849 
	C437.295898,644.868530 439.238373,645.722412 439.828979,647.005493 
	C442.485229,652.776062 447.805267,653.796814 453.025970,654.678833 
	C461.458679,656.103516 468.699219,659.124023 473.067474,667.029785 
	C474.114319,668.924316 475.876404,669.666992 478.035583,669.880920 
	C484.813751,670.552490 489.774811,673.371399 492.037170,680.459167 
	C493.102905,683.797974 497.790741,684.190308 499.674500,682.899414 
	C503.228271,680.464294 505.333527,682.560303 506.890350,684.344788 
	C508.663696,686.377563 510.700378,686.923218 512.918030,687.355164 
	C518.799316,688.500610 524.713684,689.477844 530.620117,690.491211 
	C531.767212,690.688049 533.375549,691.298401 534.029175,690.780884 
	C539.570618,686.393799 545.934509,690.459045 551.717651,688.844299 
	C556.866333,687.406738 561.909363,687.715942 566.570129,690.406128 
	C567.069458,692.713562 564.432190,692.215271 563.949646,693.699829 
	C599.528809,696.643188 635.033264,698.951172 670.632996,695.240173 
	C674.440979,694.843201 678.270264,694.468201 682.091797,694.445618 
	C684.703857,694.430115 686.997498,694.411499 687.571411,690.946838 
	C692.191223,693.653198 696.598083,692.938477 701.061890,692.137451 
	C740.036987,685.142822 773.624146,666.540955 805.238892,643.740295 
	C817.411987,634.961060 828.930176,625.364441 840.036682,615.257507 
	C842.730591,612.806030 843.961365,610.185547 844.053467,606.606812 
	C844.533325,587.964355 844.988342,569.318604 845.778137,550.687805 
	C846.263977,539.227661 847.308350,527.800964 849.687317,516.523499 
	C851.764526,506.676758 857.037903,499.623047 866.383484,495.613312 
	C879.056824,490.175842 891.197937,483.373474 905.118958,481.235168 
	C908.954712,480.645966 912.775330,480.415924 916.561829,480.847015 
	C927.156006,482.053131 933.124695,491.475952 930.895752,503.021027 
	C928.639099,514.709778 923.039673,524.921631 916.732849,534.767883 
	C899.828674,561.158752 879.382446,584.657532 856.553284,605.979553 
	C849.454773,612.609375 846.916321,619.306946 847.071350,628.917175 
	C847.662842,665.572449 846.853088,702.250854 847.487061,738.904724 
	C848.126770,775.890076 847.654602,812.884338 848.527527,849.852173 
	C849.231689,879.672729 848.621826,909.498962 849.535278,939.296265 
	C850.362610,966.284424 850.043396,993.265808 850.393555,1020.248230 
	C850.410706,1021.567688 850.653931,1022.884338 850.895996,1024.601074 
	C849.933289,1025.000000 848.866638,1025.000000 847.399963,1025.000000 
M565.337524,573.017273 
	C538.262146,581.542053 510.437592,586.795349 482.403473,590.948242 
	C486.031738,599.122070 485.136322,607.470520 489.105469,614.320557 
	C505.076477,617.901611 521.626892,620.013794 537.392273,625.536377 
	C543.442810,627.655823 549.398499,630.398926 552.323853,636.469727 
	C554.315613,640.603027 556.523926,641.050964 560.535095,639.759644 
	C584.168640,632.152039 608.491333,627.231567 632.635498,621.625549 
	C656.160217,616.163391 679.712769,610.725952 701.793030,600.622559 
	C715.208435,594.483948 727.837402,587.041504 736.174011,574.208069 
	C737.350281,572.397217 739.409302,570.685364 738.189880,567.705872 
	C731.812134,568.402466 724.142029,574.992371 719.882080,564.733398 
	C717.478271,558.944580 720.658630,548.929810 725.687012,546.437744 
	C735.166687,541.739563 739.848450,548.995117 744.872681,555.148560 
	C745.757812,554.538391 746.474976,554.136902 747.083801,553.610107 
	C755.098083,546.676086 760.981995,537.936890 767.329773,529.598572 
	C775.471497,518.903870 784.499634,509.218719 796.696289,503.012451 
	C797.244324,502.733582 797.888916,502.375366 797.227722,501.131866 
	C795.136475,501.586243 792.768311,501.833893 790.781067,500.343262 
	C787.780334,498.092438 784.363647,497.968567 780.805969,497.947906 
	C773.154236,497.903503 766.460815,500.810852 760.167603,504.656097 
	C753.353943,508.819366 746.189575,511.800385 738.180298,512.114380 
	C721.483765,512.768982 706.254578,516.462769 693.354736,528.385193 
	C686.545654,534.678284 677.533875,535.947266 668.677856,530.923706 
	C667.046082,529.998047 665.108276,529.752075 663.324219,530.284607 
	C658.397644,531.755066 654.218933,530.676453 650.378418,527.308289 
	C643.837280,521.571716 637.141113,523.509460 630.772278,527.555664 
	C628.160461,529.214966 625.805542,531.387085 628.466919,535.278259 
	C630.530823,538.295654 628.966370,541.387024 626.874390,543.974243 
	C623.679688,547.925232 619.564636,550.767639 615.168457,553.192139 
	C599.629761,561.761780 582.924683,567.420166 565.337524,573.017273 
M909.586792,486.040955 
	C904.533020,486.149261 899.724426,487.428619 894.944275,488.961182 
	C884.439392,492.329102 874.700317,497.529388 864.482544,501.539917 
	C859.065857,503.665985 856.068787,507.222229 854.323914,512.308838 
	C851.932068,519.281372 851.068542,526.555664 850.264771,533.841919 
	C848.088562,553.569275 848.551453,573.421387 847.434204,593.199219 
	C847.185974,597.594238 847.018188,602.073975 848.476440,606.668152 
	C849.310608,606.170349 849.947754,605.934204 850.395996,605.502136 
	C875.186646,581.607239 898.262329,556.267151 916.002869,526.534668 
	C921.044250,518.085449 925.705200,509.379791 925.993530,499.133453 
	C926.239197,490.405701 922.638184,486.427826 914.016602,486.008026 
	C912.852905,485.951355 911.684082,486.000244 909.586792,486.040955 
M230.224213,537.710693 
	C229.088058,537.457275 227.945160,537.230530 226.816879,536.945862 
	C221.150162,535.515747 218.626877,537.606934 219.136032,543.420105 
	C219.573914,548.419556 221.994095,552.043335 226.419998,554.609009 
	C239.490280,562.185791 252.811890,559.269104 265.479675,554.522827 
	C280.660309,548.834961 282.800781,534.533325 271.177032,522.915283 
	C270.002045,521.740967 268.775146,520.566772 267.847778,519.204956 
	C260.991150,509.135620 253.245834,508.304260 241.434113,511.110779 
	C233.693527,512.950012 232.058487,516.366943 233.693939,524.508911 
	C236.468460,525.200623 239.247742,524.625488 242.020477,524.238159 
	C247.705017,523.444031 253.306168,523.843079 258.830872,525.349243 
	C260.695251,525.857483 262.247650,526.862610 262.642029,528.886169 
	C263.055878,531.009583 261.698639,532.416931 260.093567,533.346558 
	C258.095215,534.503906 255.976837,535.537659 253.792099,536.274292 
	C246.386551,538.771240 238.759735,538.765259 230.224213,537.710693 
M587.577393,549.022217 
	C575.343933,553.233582 563.111694,557.448792 550.876160,561.654175 
	C546.786011,563.059937 542.684387,564.432312 538.592773,565.833801 
	C528.575378,569.265015 518.035645,571.716431 510.476196,580.989075 
	C512.882629,580.676331 514.841431,580.487610 516.776611,580.159424 
	C529.092590,578.071350 541.188538,574.996338 553.183655,571.584229 
	C574.005371,565.661377 594.685547,559.296387 613.681274,548.554260 
	C616.876282,546.747498 619.972595,544.761902 622.350342,541.898071 
	C623.888977,540.044983 624.697937,537.952576 622.070923,536.431519 
	C619.186707,534.761597 615.546387,533.858337 613.284607,536.592041 
	C606.728271,544.516418 597.908081,547.271667 587.577393,549.022217 
M724.294312,557.118713 
	C724.186707,559.859314 722.979736,563.095825 725.666565,564.974182 
	C728.355103,566.853760 730.969849,564.486145 733.542358,563.584900 
	C733.697205,563.530640 733.857300,563.466431 733.987305,563.369690 
	C736.133301,561.772400 739.789124,561.341492 739.582825,557.818115 
	C739.371765,554.212830 736.685974,551.998047 733.619263,550.463196 
	C729.426819,548.364929 727.246643,549.798218 724.294312,557.118713 
M206.079117,472.790131 
	C214.703796,473.189423 222.528320,477.467896 231.128067,477.983582 
	C221.454941,474.776031 211.872498,471.106018 200.921783,471.491547 
	C201.316483,473.604462 200.873657,475.258759 202.261353,476.439484 
	C203.385345,475.183960 204.363953,474.090851 206.079117,472.790131 
M243.418076,533.093018 
	C246.898346,532.808044 250.546341,533.088623 253.697617,530.326599 
	C247.865967,528.398865 241.968994,529.223999 234.339645,533.101990 
	C237.560593,533.101990 240.035538,533.101990 243.418076,533.093018 
M487.422943,580.008118 
	C487.500549,581.329407 486.304047,582.918213 489.087585,584.400452 
	C489.232330,580.190918 493.364838,581.171265 496.047424,578.868835 
	C492.758392,577.866821 490.153534,577.167358 487.422943,580.008118 
M541.839966,652.669189 
	C540.111206,655.326294 542.580688,655.787231 543.805786,657.057800 
	C545.507812,655.744019 547.043152,654.422729 546.140137,652.496094 
	C545.262146,650.622742 543.643921,651.846924 541.839966,652.669189 
z"/>
<path fill="#000000" opacity="1.000000" stroke="none" 
	d="
M578.868408,690.032898 
	C580.046631,690.329773 580.944824,691.110962 579.729431,691.502563 
	C577.556519,692.202698 575.170105,692.708069 572.424377,691.648865 
	C574.366089,689.341736 576.587219,690.169800 578.868408,690.032898 
z"/>
</svg>