<svg xmlns="http://www.w3.org/2000/svg" xml:space="preserve" viewBox="0 0 1024 1024"><path d="M847.4 1025c-.84-48.98-1.09-97.96-1.79-146.94-.59-41.48-.43-82.97-1.14-124.45-.74-43.48-.47-86.96-.68-130.45v-4.5c-5.95 5-11.16 9.5-16.48 13.85-27.56 22.63-56.68 42.7-90.4 55.25-20.93 7.8-42.8 11-64.85 13.3-17.4 1.8-34.9 2.87-52.38 1.94-46.01-2.45-92.26-3.6-136.6-18.35-39.24-13.05-78.41-26.47-112.72-50.43-17.6-12.29-35.01-24.9-50.7-39.67-3.92-3.69-7.22-7.82-8.44-13.3-.28-1.26-.95-1.67.43-3.34 2.05-2.48-.89-4.52-3.51-4.77-7.58-.74-15.18-1.58-22.83-.4-12.06 1.89-22.56 7.87-33.57 12.54-19.9 8.45-40.3 14.96-62.32 13.94-11.16-.52-22.2-1.98-32.83-5.72-2.55-.9-5.27-1.83-5.74-4.91-.5-3.21 2.05-4.71 4.33-6.11a90.7 90.7 0 0 0 23.42-20.8c10.26-12.79 21.19-24.88 37.46-31.55-12.55-16.56-13.02-36.66-19.47-54.72-2.13-5.97.15-8.95 6.69-8.66 18.85.84 35.36 8.05 51.06 18.2 15.7 10.15 28.03 23.56 39.41 37.96 20.73 26.21 48.33 40.05 80.61 45.82 11.93 2.13 23.98 1.45 35.89.72 27.92-1.73 55.48-6.38 82.95-11.57 6.3-1.19 12.01-3.94 17.9-6.22 23.51-9.13 47.9-15 72.56-20.03 10.63-2.17 20.09-7.9 29.79-12.64 4.59-2.25 10.3-3.25 12.52-9 .23-.6 1.73-1.4 1.99-1.2 4.08 2.98 6.7-.82 9.52-2.26 18.37-9.42 36.38-19.55 55.45-27.62 23.2-9.82 46.94-11.95 71.3-5.46 29.92 7.97 58.68 3.93 87.03-7.27 11.58-4.58 23.38-8.85 36.04-9.66 1.32-.08 2.66-.12 3.98-.04 4.56.3 9.51.58 11.42 5.53 1.97 5.1-.95 9.49-4.07 13.18-5.94 7.04-14.36 10.18-22.76 12.86-14.27 4.56-28.76 8.42-43.05 12.93-7.45 2.35-14.66 5.46-21.97 8.25-1.54.58-2.96 1.57-4.45 1.29-2.09-1.23-.36-3.41-1.9-4.89-10.98 3.28-19.54 10.25-26.9 18.82-4.42 5.16-8.21 10.8-11.9 16.58-4.89 7.67-11.08 14.52-16.8 21.65-1.37 1.69-2.98 3.2-3.78 5.24-5.13 13.29-15.27 21.99-26.88 29.29-19.46 12.23-41.31 18.26-63.24 24.03-20.44 5.38-41.4 8.73-61.42 15.65-8.79 3.03-17.21 7.1-25.8 10.68-.73.3-1.49.51-2.48.2l9-5.86c-6.59.2-12.69 2.26-18.67 4.75-1.2.5-1.33 1.84-1.63 2.96-3.14 12-11.93 19.17-21.84 25.32-3.43 2.13-7.09 3.3-10.53 0-3.28-3.17-3.35-7.11-2.16-11.14 1.16-3.9 4.2-6.44 7.3-8.64 5.01-3.57 10.31-6.74 15.46-10.12 2.36-1.54 5.45-3.17 4.84-6.31-.58-2.92-3.76-3.81-6.53-4.73-28.56-9.47-58.02-14.78-87.66-19.35-33.96-5.25-66.19-16.37-97.64-29.88-10.5-4.51-21.54-5.59-32.73-4.74-5.58.43-6.3 2.55-2.86 7.14 5.67 7.56 13.36 13.03 20.86 18.52a421.63 421.63 0 0 0 62.66 38.2c2.88 1.43 5.59 3.52 7.03-1.89.7-2.66 9.18-3.93 13.49-2.45 4.09 1.42 8.13 3 12.1 4.68 1.5.64 3.45 1.5 4.04 2.78 2.66 5.77 7.98 6.79 13.2 7.67 8.43 1.42 15.67 4.44 20.04 12.35 1.04 1.9 2.8 2.64 4.97 2.85 6.77.67 11.73 3.5 14 10.58 1.06 3.34 5.75 3.73 7.63 2.44 3.56-2.44 5.66-.34 7.22 1.44 1.77 2.04 3.81 2.58 6.03 3.02 5.88 1.14 11.8 2.12 17.7 3.13 1.15.2 2.76.8 3.4.3 5.55-4.4 11.91-.33 17.7-1.95 5.15-1.43 10.19-1.12 14.85 1.57.5 2.3-2.14 1.8-2.62 3.29 35.58 2.94 71.08 5.25 106.68 1.54 3.81-.4 7.64-.77 11.46-.8 2.61-.01 4.9-.03 5.48-3.5 4.62 2.71 9.03 2 13.5 1.2 38.97-7 72.55-25.6 104.17-48.4a396.13 396.13 0 0 0 34.8-28.48 11.23 11.23 0 0 0 4.01-8.65c.48-18.65.94-37.3 1.73-55.92.48-11.46 1.53-22.89 3.9-34.17 2.08-9.84 7.36-16.9 16.7-20.9 12.68-5.44 24.82-12.25 38.74-14.38 3.83-.6 7.66-.82 11.44-.4 10.6 1.21 16.56 10.64 14.34 22.18-2.26 11.69-7.86 21.9-14.17 31.75-16.9 26.39-37.35 49.89-60.18 71.21-7.1 6.63-9.63 13.33-9.48 22.94.6 36.65-.22 73.33.42 109.98.64 36.99.16 73.98 1.04 110.95.7 29.82.1 59.65 1 89.45.83 26.98.51 53.97.86 80.95.02 1.32.26 2.63.5 4.35-.96.4-2.02.4-3.49.4M565.34 573.02c-27.08 8.52-54.9 13.78-82.94 17.93 3.63 8.17 2.74 16.52 6.7 23.37 15.98 3.58 32.53 5.7 48.3 11.22 6.04 2.12 12 4.86 14.92 10.93 2 4.13 4.2 4.58 8.22 3.29 23.63-7.6 47.95-12.53 72.1-18.13 23.52-5.47 47.07-10.9 69.15-21 13.42-6.15 26.05-13.59 34.38-26.42 1.18-1.81 3.24-3.52 2.02-6.5-6.38.7-14.05 7.28-18.3-2.98-2.41-5.79.77-15.8 5.8-18.3 9.48-4.69 14.16 2.57 19.18 8.72.89-.61 1.6-1.01 2.21-1.54 8.02-6.93 13.9-15.67 20.25-24.01 8.14-10.7 17.17-20.38 29.37-26.59.54-.28 1.19-.63.53-1.88-2.1.46-4.46.7-6.45-.79-3-2.25-6.42-2.37-9.97-2.4-7.66-.04-14.35 2.87-20.64 6.72-6.82 4.16-13.98 7.14-21.99 7.45-16.7.66-31.93 4.35-44.83 16.28-6.8 6.29-15.82 7.56-24.67 2.53a6.88 6.88 0 0 0-5.36-.64c-4.92 1.48-9.1.4-12.94-2.97-6.54-5.74-13.24-3.8-19.6.25-2.62 1.65-4.97 3.83-2.31 7.72 2.06 3.02.5 6.1-1.6 8.7-3.19 3.95-7.3 6.79-11.7 9.21-15.54 8.57-32.25 14.23-49.83 19.83m344.25-86.98c-5.06.1-9.87 1.39-14.65 2.92-10.5 3.37-20.24 8.57-30.46 12.58-5.41 2.13-8.41 5.68-10.16 10.77-2.39 6.97-3.25 14.25-4.06 21.53-2.17 19.73-1.7 39.58-2.83 59.36-.24 4.4-.41 8.87 1.05 13.47.83-.5 1.47-.74 1.92-1.17 24.79-23.9 47.86-49.23 65.6-78.97 5.04-8.44 9.7-17.15 10-27.4.24-8.72-3.36-12.7-11.98-13.12-1.17-.06-2.34-.01-4.43.03m-679.37 51.67c-1.13-.25-2.27-.48-3.4-.76-5.67-1.43-8.2.66-7.68 6.47.43 5 2.85 8.62 7.28 11.19 13.07 7.58 26.4 4.66 39.06-.09 15.18-5.69 17.32-19.99 5.7-31.6-1.18-1.18-2.4-2.35-3.33-3.72-6.86-10.06-14.6-10.9-26.42-8.09-7.74 1.84-9.37 5.26-7.74 13.4 2.78.7 5.56.12 8.33-.27 5.69-.8 11.29-.4 16.81 1.1 1.87.52 3.42 1.52 3.81 3.55.42 2.12-.94 3.53-2.55 4.46-2 1.15-4.11 2.19-6.3 2.92-7.4 2.5-15.03 2.5-23.57 1.44m357.36 11.31-36.7 12.63c-4.1 1.41-8.2 2.78-12.29 4.18-10.01 3.44-20.55 5.89-28.11 15.16 2.4-.31 4.36-.5 6.3-.83 12.31-2.09 24.4-5.16 36.4-8.58 20.83-5.92 41.5-12.28 60.5-23.03 3.2-1.8 6.3-3.79 8.67-6.65 1.54-1.86 2.35-3.95-.28-5.47-2.88-1.67-6.52-2.57-8.79.16-6.55 7.93-15.37 10.68-25.7 12.43m136.71 8.1c-.1 2.74-1.31 5.98 1.38 7.85 2.69 1.88 5.3-.48 7.87-1.39.16-.05.32-.11.45-.21 2.14-1.6 5.8-2.03 5.6-5.55-.22-3.6-2.9-5.82-5.97-7.36-4.2-2.1-6.37-.66-9.33 6.66m-518.21-84.33c8.62.4 16.45 4.68 25.05 5.2-9.68-3.21-19.26-6.88-30.2-6.5.39 2.11-.06 3.77 1.33 4.95a24.7 24.7 0 0 1 3.82-3.65m37.34 60.3c3.48-.28 7.13 0 10.28-2.76-5.83-1.93-11.73-1.1-19.36 2.77h9.08m244 46.9c.08 1.33-1.12 2.92 1.67 4.4.14-4.2 4.27-3.23 6.96-5.53-3.3-1-5.9-1.7-8.63 1.14m54.42 72.66c-1.73 2.66.74 3.12 1.97 4.39 1.7-1.32 3.23-2.64 2.33-4.56-.88-1.88-2.5-.65-4.3.17z"/><path d="M578.87 690.03c1.18.3 2.07 1.08.86 1.47-2.17.7-4.56 1.2-7.3.15 1.94-2.3 4.16-1.48 6.44-1.62z"/></svg>